<?xml version="1.0" encoding="UTF-8"?>
<svg id="Layer_1" data-name="Layer 1" xmlns="http://www.w3.org/2000/svg" viewBox="0 0 101.11 119.75">
  <defs>
    <style>
      .cls-1 {
        fill: #000;
        stroke-width: 0px;
      }
    </style>
  </defs>
  <path class="cls-1" d="M0,0v119.75h101.11V0H0ZM95.94,60.46c0,13.2-9.95,23.9-22.23,23.9H22c-14.81,0-14.81,7.97-14.81,7.97-1.85-23.91,14.81-23.91,14.81-23.91h51.71c4.09,0,7.41-3.56,7.41-7.96H22c-14.81,0-14.81,7.96-14.81,7.96-1.85-23.9,14.81-23.9,14.81-23.9h59.26c14.82,0,14.82-7.97,14.82-7.97,1.85,23.91-14.82,23.91-14.82,23.91h14.68Z"/>
</svg>
